<svg version="1.1" viewBox="0.0 0.0 549.2650918635171 424.8530183727034" fill="none" stroke="none" stroke-linecap="square" stroke-miterlimit="10" xmlns:xlink="http://www.w3.org/1999/xlink" xmlns="http://www.w3.org/2000/svg"><clipPath id="p.0"><path d="m0 0l549.2651 0l0 424.85303l-549.2651 0l0 -424.85303z" clip-rule="nonzero"/></clipPath><g clip-path="url(#p.0)"><path fill="#000000" fill-opacity="0.0" d="m0 0l549.2651 0l0 424.85303l-549.2651 0z" fill-rule="evenodd"/><path fill="#000000" fill-opacity="0.0" d="m247.34253 13.890357l-207.40157 81.543304" fill-rule="evenodd"/><path stroke="#e8eaed" stroke-width="8.0" stroke-linejoin="round" stroke-linecap="round" d="m247.34253 13.890357l-207.40157 81.543304" fill-rule="evenodd"/><path fill="#000000" fill-opacity="0.0" d="m296.0932 13.890357l207.40155 81.543304" fill-rule="evenodd"/><path stroke="#e8eaed" stroke-width="8.0" stroke-linejoin="round" stroke-linecap="round" d="m296.0932 13.890357l207.40155 81.543304" fill-rule="evenodd"/><path fill="#000000" fill-opacity="0.0" d="m294.8189 10.934383l-45.700806 0" fill-rule="evenodd"/><path stroke="#e8eaed" stroke-width="8.0" stroke-linejoin="round" stroke-linecap="round" d="m294.8189 10.934383l-45.700806 0" fill-rule="evenodd"/><path fill="#000000" fill-opacity="0.0" d="m291.3727 22.637794l-18.86615 0" fill-rule="evenodd"/><path stroke="#e8eaed" stroke-width="8.0" stroke-linejoin="round" stroke-linecap="round" d="m291.3727 22.637794l-18.86615 0" fill-rule="evenodd"/><path fill="#000000" fill-opacity="0.0" d="m291.69553 23.430447c5.0507507 3.261591 20.50351 13.974628 30.304474 19.569553c9.800964 5.594925 17.167969 9.166668 28.501312 14.0c11.3333435 4.833332 27.332031 10.666664 39.498688 15.0c12.1666565 4.333336 20.208221 6.989937 33.501312 11.0c13.293091 4.010063 38.54767 10.883636 46.257233 13.060364" fill-rule="evenodd"/><path stroke="#e8eaed" stroke-width="8.0" stroke-linejoin="round" stroke-linecap="round" d="m291.69553 23.430447c5.0507507 3.261591 20.50351 13.974628 30.304474 19.569553c9.800964 5.594925 17.167969 9.166668 28.501312 14.0c11.3333435 4.833332 27.332031 10.666664 39.498688 15.0c12.1666565 4.333336 20.208221 6.989937 33.501312 11.0c13.293091 4.010063 38.54767 10.883636 46.257233 13.060364" fill-rule="evenodd"/><path fill="#000000" fill-opacity="0.0" d="m273.24936 23.430447c2.5419312 4.968004 7.677307 20.250908 15.251678 29.80803c7.5743713 9.557125 19.06604 20.182415 30.19455 27.534718c11.1285095 7.3523026 23.899384 12.461197 36.57657 16.579086c12.677155 4.117897 24.529144 5.870575 39.48645 8.128288c14.957336 2.2577057 41.881256 4.514984 50.257477 5.417984" fill-rule="evenodd"/><path stroke="#e8eaed" stroke-width="8.0" stroke-linejoin="round" stroke-linecap="round" d="m273.24936 23.430447c2.5419312 4.968004 7.677307 20.250908 15.251678 29.80803c7.5743713 9.557125 19.06604 20.182415 30.19455 27.534718c11.1285095 7.3523026 23.899384 12.461197 36.57657 16.579086c12.677155 4.117897 24.529144 5.870575 39.48645 8.128288c14.957336 2.2577057 41.881256 4.514984 50.257477 5.417984" fill-rule="evenodd"/><path fill="#000000" fill-opacity="0.0" d="m471.0 97.50131l-24.503937 13.007874" fill-rule="evenodd"/><path stroke="#e8eaed" stroke-width="8.0" stroke-linejoin="round" stroke-linecap="round" d="m471.0 97.50131l-24.503937 13.007874" fill-rule="evenodd"/><path fill="#000000" fill-opacity="0.0" d="m471.0 97.50131l0 266.01575" fill-rule="evenodd"/><path stroke="#e8eaed" stroke-width="8.0" stroke-linejoin="round" stroke-linecap="round" d="m471.0 97.50131l0 266.01575" fill-rule="evenodd"/><path fill="#000000" fill-opacity="0.0" d="m503.55905 95.43307l0 277.5748" fill-rule="evenodd"/><path stroke="#e8eaed" stroke-width="8.0" stroke-linejoin="round" stroke-linecap="round" d="m503.55905 95.43307l0 277.5748" fill-rule="evenodd"/><path fill="#000000" fill-opacity="0.0" d="m39.559055 97.50131l0 280.063" fill-rule="evenodd"/><path stroke="#e8eaed" stroke-width="8.0" stroke-linejoin="round" stroke-linecap="round" d="m39.559055 97.50131l0 280.063" fill-rule="evenodd"/><path fill="#000000" fill-opacity="0.0" d="m74.50131 365.0l-33.417324 13.070862" fill-rule="evenodd"/><path stroke="#e8eaed" stroke-width="8.0" stroke-linejoin="round" stroke-linecap="round" d="m74.50131 365.0l-33.417324 13.070862" fill-rule="evenodd"/><path fill="#000000" fill-opacity="0.0" d="m471.5013 362.5013l32.0 12.661407" fill-rule="evenodd"/><path stroke="#e8eaed" stroke-width="8.0" stroke-linejoin="round" stroke-linecap="round" d="m471.5013 362.5013l32.0 12.661407" fill-rule="evenodd"/><path fill="#000000" fill-opacity="0.0" d="m446.24802 110.90026l0 266.01575" fill-rule="evenodd"/><path stroke="#e8eaed" stroke-width="8.0" stroke-linejoin="round" stroke-linecap="round" d="m446.24802 110.90026l0 266.01575" fill-rule="evenodd"/><path fill="#000000" fill-opacity="0.0" d="m471.12598 364.55643l-24.503937 13.007874" fill-rule="evenodd"/><path stroke="#e8eaed" stroke-width="8.0" stroke-linejoin="round" stroke-linecap="round" d="m471.12598 364.55643l-24.503937 13.007874" fill-rule="evenodd"/><path fill="#000000" fill-opacity="0.0" d="m273.25064 290.0971c2.5679321 4.9680176 7.755829 20.250916 15.407623 29.808044c7.651825 9.557129 19.260986 20.182404 30.503296 27.534698c11.24231 7.352295 24.143768 12.461212 36.95056 16.579102c12.806793 4.1178894 24.779968 5.870575 39.89023 8.128265c15.11026 2.257721 42.30948 4.5150146 50.771362 5.4179993" fill-rule="evenodd"/><path stroke="#e8eaed" stroke-width="8.0" stroke-linejoin="round" stroke-linecap="round" d="m273.25064 290.0971c2.5679321 4.9680176 7.755829 20.250916 15.407623 29.808044c7.651825 9.557129 19.260986 20.182404 30.503296 27.534698c11.24231 7.352295 24.143768 12.461212 36.95056 16.579102c12.806793 4.1178894 24.779968 5.870575 39.89023 8.128265c15.11026 2.257721 42.30948 4.5150146 50.771362 5.4179993" fill-rule="evenodd"/><path fill="#000000" fill-opacity="0.0" d="m272.50787 22.637794l0 266.01575" fill-rule="evenodd"/><path stroke="#e8eaed" stroke-width="8.0" stroke-linejoin="round" stroke-linecap="round" d="m272.50787 22.637794l0 266.01575" fill-rule="evenodd"/><path fill="#000000" fill-opacity="0.0" d="m254.38321 22.637794l18.86612 0" fill-rule="evenodd"/><path stroke="#e8eaed" stroke-width="8.0" stroke-linejoin="round" stroke-linecap="round" d="m254.38321 22.637794l18.86612 0" fill-rule="evenodd"/><path fill="#000000" fill-opacity="0.0" d="m254.06036 23.430447c-5.0507355 3.261591 -20.503494 13.974628 -30.304459 19.569553c-9.800964 5.594925 -17.167984 9.166668 -28.501312 14.0c-11.333328 4.833332 -27.332016 10.666664 -39.498688 15.0c-12.166672 4.333336 -20.208221 6.989937 -33.501312 11.0c-13.293091 4.010063 -38.547684 10.883636 -46.257217 13.060364" fill-rule="evenodd"/><path stroke="#e8eaed" stroke-width="8.0" stroke-linejoin="round" stroke-linecap="round" d="m254.06036 23.430447c-5.0507355 3.261591 -20.503494 13.974628 -30.304459 19.569553c-9.800964 5.594925 -17.167984 9.166668 -28.501312 14.0c-11.333328 4.833332 -27.332016 10.666664 -39.498688 15.0c-12.166672 4.333336 -20.208221 6.989937 -33.501312 11.0c-13.293091 4.010063 -38.547684 10.883636 -46.257217 13.060364" fill-rule="evenodd"/><path fill="#000000" fill-opacity="0.0" d="m272.50656 23.430447c-2.5419617 4.968004 -7.6773376 20.250908 -15.251709 29.80803c-7.5743713 9.557125 -19.066025 20.182415 -30.194534 27.534718c-11.128525 7.3523026 -23.899384 12.461197 -36.576553 16.579086c-12.677185 4.117897 -24.529144 5.870575 -39.48648 8.128288c-14.957321 2.2577057 -41.881226 4.514984 -50.257477 5.417984" fill-rule="evenodd"/><path stroke="#e8eaed" stroke-width="8.0" stroke-linejoin="round" stroke-linecap="round" d="m272.50656 23.430447c-2.5419617 4.968004 -7.6773376 20.250908 -15.251709 29.80803c-7.5743713 9.557125 -19.066025 20.182415 -30.194534 27.534718c-11.128525 7.3523026 -23.899384 12.461197 -36.576553 16.579086c-12.677185 4.117897 -24.529144 5.870575 -39.48648 8.128288c-14.957321 2.2577057 -41.881226 4.514984 -50.257477 5.417984" fill-rule="evenodd"/><path fill="#000000" fill-opacity="0.0" d="m74.755905 97.50131l0 266.01575" fill-rule="evenodd"/><path stroke="#e8eaed" stroke-width="8.0" stroke-linejoin="round" stroke-linecap="round" d="m74.755905 97.50131l0 266.01575" fill-rule="evenodd"/><path fill="#000000" fill-opacity="0.0" d="m99.50787 110.90026l0 266.01575" fill-rule="evenodd"/><path stroke="#e8eaed" stroke-width="8.0" stroke-linejoin="round" stroke-linecap="round" d="m99.50787 110.90026l0 266.01575" fill-rule="evenodd"/><path fill="#000000" fill-opacity="0.0" d="m73.7336 364.55643l24.503937 13.007874" fill-rule="evenodd"/><path stroke="#e8eaed" stroke-width="8.0" stroke-linejoin="round" stroke-linecap="round" d="m73.7336 364.55643l24.503937 13.007874" fill-rule="evenodd"/><path fill="#000000" fill-opacity="0.0" d="m75.997375 97.50131l24.503937 13.007874" fill-rule="evenodd"/><path stroke="#e8eaed" stroke-width="8.0" stroke-linejoin="round" stroke-linecap="round" d="m75.997375 97.50131l24.503937 13.007874" fill-rule="evenodd"/><path fill="#000000" fill-opacity="0.0" d="m222.22801 393.62704l-62.33072 -220.72441" fill-rule="evenodd"/><path stroke="#e8eaed" stroke-width="8.0" stroke-linejoin="round" stroke-linecap="round" d="m222.22801 393.62704l-62.33072 -220.72441" fill-rule="evenodd"/><path fill="#000000" fill-opacity="0.0" d="m248.82225 386.99353l-62.330704 -220.7244" fill-rule="evenodd"/><path stroke="#e8eaed" stroke-width="8.0" stroke-linejoin="round" stroke-linecap="round" d="m248.82225 386.99353l-62.330704 -220.7244" fill-rule="evenodd"/><path fill="#000000" fill-opacity="0.0" d="m159.45932 172.39355c0.8124237 -1.9207611 2.1414032 -9.160507 4.874588 -11.524506c2.7331848 -2.3639984 8.126251 -3.1768188 11.52449 -2.6595001c3.3982544 0.5173187 7.387512 4.802841 8.8650055 5.7634125" fill-rule="evenodd"/><path stroke="#e8eaed" stroke-width="8.0" stroke-linejoin="round" stroke-linecap="round" d="m159.45932 172.39355c0.8124237 -1.9207611 2.1414032 -9.160507 4.874588 -11.524506c2.7331848 -2.3639984 8.126251 -3.1768188 11.52449 -2.6595001c3.3982544 0.5173187 7.387512 4.802841 8.8650055 5.7634125" fill-rule="evenodd"/><path fill="#000000" fill-opacity="0.0" d="m159.9107 134.94252l16.440933 23.149612" fill-rule="evenodd"/><path stroke="#e8eaed" stroke-width="8.0" stroke-linejoin="round" stroke-linecap="round" d="m159.9107 134.94252l16.440933 23.149612" fill-rule="evenodd"/><path fill="#000000" fill-opacity="0.0" d="m160.3458 134.71916l0.37794495 29.70079" fill-rule="evenodd"/><path stroke="#e8eaed" stroke-width="8.0" stroke-linejoin="round" stroke-linecap="round" d="m160.3458 134.71916l0.37794495 29.70079" fill-rule="evenodd"/><path fill="#000000" fill-opacity="0.0" d="m222.22917 393.6259c0.8124237 -1.9207458 2.1414032 -9.160492 4.874588 -11.524506c2.7331848 -2.3639832 8.126251 -3.1768188 11.52449 -2.6594849c3.3982544 0.51730347 7.387512 4.802826 8.8650055 5.763397" fill-rule="evenodd"/><path stroke="#e8eaed" stroke-width="8.0" stroke-linejoin="round" stroke-linecap="round" d="m222.22917 393.6259c0.8124237 -1.9207458 2.1414032 -9.160492 4.874588 -11.524506c2.7331848 -2.3639832 8.126251 -3.1768188 11.52449 -2.6594849c3.3982544 0.51730347 7.387512 4.802826 8.8650055 5.763397" fill-rule="evenodd"/><path fill="#000000" fill-opacity="0.0" d="m248.54959 389.1406c-0.516922 1.4775085 -0.51615906 6.944275 -3.1015778 8.865021c-2.585434 1.9207458 -8.643188 3.0290527 -12.411011 2.6594849c-3.767807 -0.36956787 -8.496582 -4.064087 -10.195908 -4.8769226" fill-rule="evenodd"/><path stroke="#e8eaed" stroke-width="8.0" stroke-linejoin="round" stroke-linecap="round" d="m248.54959 389.1406c-0.516922 1.4775085 -0.51615906 6.944275 -3.1015778 8.865021c-2.585434 1.9207458 -8.643188 3.0290527 -12.411011 2.6594849c-3.767807 -0.36956787 -8.496582 -4.064087 -10.195908 -4.8769226" fill-rule="evenodd"/><path fill="#000000" fill-opacity="0.0" d="m258.0702 377.60413l-20.661438 -73.57483" fill-rule="evenodd"/><path stroke="#e8eaed" stroke-width="8.0" stroke-linejoin="round" stroke-linecap="round" d="m258.0702 377.60413l-20.661438 -73.57483" fill-rule="evenodd"/><path fill="#000000" fill-opacity="0.0" d="m249.1282 375.24472l3.5590668 -4.4094543" fill-rule="evenodd"/><path stroke="#e8eaed" stroke-width="8.0" stroke-linejoin="round" stroke-linecap="round" d="m249.1282 375.24472l3.5590668 -4.4094543" fill-rule="evenodd"/><path fill="#000000" fill-opacity="0.0" d="m99.57481 377.60367c6.5083084 -0.390625 25.968498 -0.39151 39.04986 -2.343811c13.081375 -1.9523315 28.114182 -5.335083 39.438324 -9.370087c11.324158 -4.0350037 23.755478 -12.366577 28.506561 -14.839905" fill-rule="evenodd"/><path stroke="#e8eaed" stroke-width="8.0" stroke-linejoin="round" stroke-linecap="round" d="m99.57481 377.60367c6.5083084 -0.390625 25.968498 -0.39151 39.04986 -2.343811c13.081375 -1.9523315 28.114182 -5.335083 39.438324 -9.370087c11.324158 -4.0350037 23.755478 -12.366577 28.506561 -14.839905" fill-rule="evenodd"/><path fill="#000000" fill-opacity="0.0" d="m244.05511 329.18372c2.4733124 -2.8634949 10.153992 -10.542847 14.839905 -17.181091c4.685913 -6.6382446 11.062988 -18.873566 13.275574 -22.648285" fill-rule="evenodd"/><path stroke="#e8eaed" stroke-width="8.0" stroke-linejoin="round" stroke-linecap="round" d="m244.05511 329.18372c2.4733124 -2.8634949 10.153992 -10.542847 14.839905 -17.181091c4.685913 -6.6382446 11.062988 -18.873566 13.275574 -22.648285" fill-rule="evenodd"/></g></svg>