<svg version="1.1" viewBox="0.0 0.0 549.2650918635171 424.8530183727034" fill="none" stroke="none" stroke-linecap="square" stroke-miterlimit="10" xmlns:xlink="http://www.w3.org/1999/xlink" xmlns="http://www.w3.org/2000/svg"><clipPath id="p.0"><path d="m0 0l549.2651 0l0 424.85303l-549.2651 0l0 -424.85303z" clip-rule="nonzero"/></clipPath><g clip-path="url(#p.0)"><path fill="#000000" fill-opacity="0.0" d="m0 0l549.2651 0l0 424.85303l-549.2651 0z" fill-rule="evenodd"/><path fill="#000000" fill-opacity="0.0" d="m66.65487 89.5439l207.52756 -81.543304" fill-rule="evenodd"/><path stroke="#e8eaed" stroke-width="8.0" stroke-linejoin="round" stroke-linecap="round" d="m66.65487 89.5439l207.52756 -81.543304" fill-rule="evenodd"/><path fill="#000000" fill-opacity="0.0" d="m481.60236 89.5439l-207.40158 -81.543304" fill-rule="evenodd"/><path stroke="#e8eaed" stroke-width="8.0" stroke-linejoin="round" stroke-linecap="round" d="m481.60236 89.5439l-207.40158 -81.543304" fill-rule="evenodd"/><path fill="#000000" fill-opacity="0.0" d="m66.65487 89.5439l207.40158 81.543304" fill-rule="evenodd"/><path stroke="#e8eaed" stroke-width="8.0" stroke-linejoin="round" stroke-linecap="round" d="m66.65487 89.5439l207.40158 81.543304" fill-rule="evenodd"/><path fill="#000000" fill-opacity="0.0" d="m481.60236 89.5439l-207.52756 81.543304" fill-rule="evenodd"/><path stroke="#e8eaed" stroke-width="8.0" stroke-linejoin="round" stroke-linecap="round" d="m481.60236 89.5439l-207.52756 81.543304" fill-rule="evenodd"/><path fill="#000000" fill-opacity="0.0" d="m66.65487 334.46396l207.40158 81.543304" fill-rule="evenodd"/><path stroke="#e8eaed" stroke-width="8.0" stroke-linejoin="round" stroke-linecap="round" d="m66.65487 334.46396l207.40158 81.543304" fill-rule="evenodd"/><path fill="#000000" fill-opacity="0.0" d="m481.60236 334.46396l-207.52756 81.543304" fill-rule="evenodd"/><path stroke="#e8eaed" stroke-width="8.0" stroke-linejoin="round" stroke-linecap="round" d="m481.60236 334.46396l-207.52756 81.543304" fill-rule="evenodd"/><path fill="#000000" fill-opacity="0.0" d="m274.1286 171.09032l0.03149414 244.62993" fill-rule="evenodd"/><path stroke="#e8eaed" stroke-width="8.0" stroke-linejoin="round" stroke-linecap="round" d="m274.1286 171.09032l0.03149414 244.62993" fill-rule="evenodd"/><path fill="#000000" fill-opacity="0.0" d="m481.66403 214.8189l0 119.33858" fill-rule="evenodd"/><path stroke="#e8eaed" stroke-width="8.0" stroke-linejoin="round" stroke-linecap="round" d="m481.66403 214.8189l0 119.33858" fill-rule="evenodd"/><path fill="#000000" fill-opacity="0.0" d="m66.87664 212.8189l0 121.48033" fill-rule="evenodd"/><path stroke="#e8eaed" stroke-width="8.0" stroke-linejoin="round" stroke-linecap="round" d="m66.87664 212.8189l0 121.48033" fill-rule="evenodd"/><path fill="#000000" fill-opacity="0.0" d="m67.330765 89.54456l-57.984253 97.76379" fill-rule="evenodd"/><path stroke="#e8eaed" stroke-width="8.0" stroke-linejoin="round" stroke-linecap="round" d="m67.330765 89.54456l-57.984253 97.76379" fill-rule="evenodd"/><path fill="#000000" fill-opacity="0.0" d="m274.129 171.09053l-58.86615 100.40944" fill-rule="evenodd"/><path stroke="#e8eaed" stroke-width="8.0" stroke-linejoin="round" stroke-linecap="round" d="m274.129 171.09053l-58.86615 100.40944" fill-rule="evenodd"/><path fill="#000000" fill-opacity="0.0" d="m8.062221 189.7836l207.40157 81.543304" fill-rule="evenodd"/><path stroke="#e8eaed" stroke-width="8.0" stroke-linejoin="round" stroke-linecap="round" d="m8.062221 189.7836l207.40157 81.543304" fill-rule="evenodd"/><path fill="#000000" fill-opacity="0.0" d="m274.1371 8.683838l-0.03149414 163.40158" fill-rule="evenodd"/><path stroke="#e8eaed" stroke-width="8.0" stroke-linejoin="round" stroke-linecap="round" d="m274.1371 8.683838l-0.03149414 163.40158" fill-rule="evenodd"/><path fill="#000000" fill-opacity="0.0" d="m480.92383 89.54329l57.984253 97.76378" fill-rule="evenodd"/><path stroke="#e8eaed" stroke-width="8.0" stroke-linejoin="round" stroke-linecap="round" d="m480.92383 89.54329l57.984253 97.76378" fill-rule="evenodd"/><path fill="#000000" fill-opacity="0.0" d="m274.12823 171.08923l58.86612 100.409454" fill-rule="evenodd"/><path stroke="#e8eaed" stroke-width="8.0" stroke-linejoin="round" stroke-linecap="round" d="m274.12823 171.08923l58.86612 100.409454" fill-rule="evenodd"/><path fill="#000000" fill-opacity="0.0" d="m540.1942 189.78491l-207.40155 81.543304" fill-rule="evenodd"/><path stroke="#e8eaed" stroke-width="8.0" stroke-linejoin="round" stroke-linecap="round" d="m540.1942 189.78491l-207.40155 81.543304" fill-rule="evenodd"/></g></svg>