<svg version="1.1" viewBox="0.0 0.0 549.2650918635171 424.8530183727034" fill="none" stroke="none" stroke-linecap="square" stroke-miterlimit="10" xmlns:xlink="http://www.w3.org/1999/xlink" xmlns="http://www.w3.org/2000/svg"><clipPath id="p.0"><path d="m0 0l549.2651 0l0 424.85303l-549.2651 0l0 -424.85303z" clip-rule="nonzero"/></clipPath><g clip-path="url(#p.0)"><path fill="#000000" fill-opacity="0.0" d="m0 0l549.2651 0l0 424.85303l-549.2651 0z" fill-rule="evenodd"/><path fill="#000000" fill-opacity="0.0" d="m67.158806 89.96647l207.52756 -81.543304" fill-rule="evenodd"/><path stroke="#e8eaed" stroke-width="8.0" stroke-linejoin="round" stroke-linecap="round" d="m67.158806 89.96647l207.52756 -81.543304" fill-rule="evenodd"/><path fill="#000000" fill-opacity="0.0" d="m482.1063 89.96647l-207.40158 -81.543304" fill-rule="evenodd"/><path stroke="#e8eaed" stroke-width="8.0" stroke-linejoin="round" stroke-linecap="round" d="m482.1063 89.96647l-207.40158 -81.543304" fill-rule="evenodd"/><path fill="#000000" fill-opacity="0.0" d="m67.158806 89.96647l207.40158 81.54331" fill-rule="evenodd"/><path stroke="#e8eaed" stroke-width="8.0" stroke-linejoin="round" stroke-linecap="round" d="m67.158806 89.96647l207.40158 81.54331" fill-rule="evenodd"/><path fill="#000000" fill-opacity="0.0" d="m482.1063 89.96647l-207.52756 81.54331" fill-rule="evenodd"/><path stroke="#e8eaed" stroke-width="8.0" stroke-linejoin="round" stroke-linecap="round" d="m482.1063 89.96647l-207.52756 81.54331" fill-rule="evenodd"/><path fill="#000000" fill-opacity="0.0" d="m67.158806 334.88654l207.40158 81.543304" fill-rule="evenodd"/><path stroke="#e8eaed" stroke-width="8.0" stroke-linejoin="round" stroke-linecap="round" d="m67.158806 334.88654l207.40158 81.543304" fill-rule="evenodd"/><path fill="#000000" fill-opacity="0.0" d="m482.1063 334.88654l-207.52756 81.543304" fill-rule="evenodd"/><path stroke="#e8eaed" stroke-width="8.0" stroke-linejoin="round" stroke-linecap="round" d="m482.1063 334.88654l-207.52756 81.543304" fill-rule="evenodd"/><path fill="#000000" fill-opacity="0.0" d="m274.63254 171.5129l0.03149414 244.62993" fill-rule="evenodd"/><path stroke="#e8eaed" stroke-width="8.0" stroke-linejoin="round" stroke-linecap="round" d="m274.63254 171.5129l0.03149414 244.62993" fill-rule="evenodd"/><path fill="#000000" fill-opacity="0.0" d="m482.16797 89.950134l0 244.62991" fill-rule="evenodd"/><path stroke="#e8eaed" stroke-width="8.0" stroke-linejoin="round" stroke-linecap="round" d="m482.16797 89.950134l0 244.62991" fill-rule="evenodd"/><path fill="#000000" fill-opacity="0.0" d="m67.15223 89.950134l0 244.62991" fill-rule="evenodd"/><path stroke="#e8eaed" stroke-width="8.0" stroke-linejoin="round" stroke-linecap="round" d="m67.15223 89.950134l0 244.62991" fill-rule="evenodd"/><path fill="#000000" fill-opacity="0.0" d="m170.95802 50.722378l203.62206 79.71654" fill-rule="evenodd"/><path stroke="#e8eaed" stroke-width="8.0" stroke-linejoin="round" stroke-linecap="round" d="m170.95802 50.722378l203.62206 79.71654" fill-rule="evenodd"/><path fill="#000000" fill-opacity="0.0" d="m187.09448 45.427822l202.4567 80.09448" fill-rule="evenodd"/><path stroke="#e8eaed" stroke-width="8.0" stroke-linejoin="round" stroke-linecap="round" d="m187.09448 45.427822l202.4567 80.09448" fill-rule="evenodd"/></g></svg>