<svg version="1.1" viewBox="0.0 0.0 549.2650918635171 424.8530183727034" fill="none" stroke="none" stroke-linecap="square" stroke-miterlimit="10" xmlns:xlink="http://www.w3.org/1999/xlink" xmlns="http://www.w3.org/2000/svg"><clipPath id="p.0"><path d="m0 0l549.2651 0l0 424.85303l-549.2651 0l0 -424.85303z" clip-rule="nonzero"/></clipPath><g clip-path="url(#p.0)"><path fill="#000000" fill-opacity="0.0" d="m0 0l549.2651 0l0 424.85303l-549.2651 0z" fill-rule="evenodd"/><path fill="#000000" fill-opacity="0.0" d="m287.0 9.501312l216.50394 85.92126" fill-rule="evenodd"/><path stroke="#e8eaed" stroke-width="8.0" stroke-linejoin="round" stroke-linecap="round" d="m287.0 9.501312l216.50394 85.92126" fill-rule="evenodd"/><path fill="#000000" fill-opacity="0.0" d="m287.5013 8.501312l-54.015747 25.51181" fill-rule="evenodd"/><path stroke="#e8eaed" stroke-width="8.0" stroke-linejoin="round" stroke-linecap="round" d="m287.5013 8.501312l-54.015747 25.51181" fill-rule="evenodd"/><path fill="#000000" fill-opacity="0.0" d="m485.4987 101.2126l0 266.01575" fill-rule="evenodd"/><path stroke="#e8eaed" stroke-width="8.0" stroke-linejoin="round" stroke-linecap="round" d="m485.4987 101.2126l0 266.01575" fill-rule="evenodd"/><path fill="#000000" fill-opacity="0.0" d="m503.55905 95.43307l0 277.5748" fill-rule="evenodd"/><path stroke="#e8eaed" stroke-width="8.0" stroke-linejoin="round" stroke-linecap="round" d="m503.55905 95.43307l0 277.5748" fill-rule="evenodd"/><path fill="#000000" fill-opacity="0.0" d="m486.0 368.0l17.51181 7.149597" fill-rule="evenodd"/><path stroke="#e8eaed" stroke-width="8.0" stroke-linejoin="round" stroke-linecap="round" d="m486.0 368.0l17.51181 7.149597" fill-rule="evenodd"/><path fill="#000000" fill-opacity="0.0" d="m287.0 23.501312l198.51968 77.51181" fill-rule="evenodd"/><path stroke="#e8eaed" stroke-width="8.0" stroke-linejoin="round" stroke-linecap="round" d="m287.0 23.501312l198.51968 77.51181" fill-rule="evenodd"/><path fill="#000000" fill-opacity="0.0" d="m286.5013 24.0l-31.716537 15.968502" fill-rule="evenodd"/><path stroke="#e8eaed" stroke-width="8.0" stroke-linejoin="round" stroke-linecap="round" d="m286.5013 24.0l-31.716537 15.968502" fill-rule="evenodd"/><path fill="#000000" fill-opacity="0.0" d="m485.4987 101.2126l-35.527557 17.354332" fill-rule="evenodd"/><path stroke="#e8eaed" stroke-width="8.0" stroke-linejoin="round" stroke-linecap="round" d="m485.4987 101.2126l-35.527557 17.354332" fill-rule="evenodd"/><path fill="#000000" fill-opacity="0.0" d="m485.5013 367.0l-31.685028 15.338593" fill-rule="evenodd"/><path stroke="#e8eaed" stroke-width="8.0" stroke-linejoin="round" stroke-linecap="round" d="m485.5013 367.0l-31.685028 15.338593" fill-rule="evenodd"/><path fill="#000000" fill-opacity="0.0" d="m254.7756 40.417915l194.48819 78.362206" fill-rule="evenodd"/><path stroke="#e8eaed" stroke-width="8.0" stroke-linejoin="round" stroke-linecap="round" d="m254.7756 40.417915l194.48819 78.362206" fill-rule="evenodd"/><path fill="#000000" fill-opacity="0.0" d="m236.50919 34.013123l216.50394 85.92126" fill-rule="evenodd"/><path stroke="#e8eaed" stroke-width="8.0" stroke-linejoin="round" stroke-linecap="round" d="m236.50919 34.013123l216.50394 85.92126" fill-rule="evenodd"/><path fill="#000000" fill-opacity="0.0" d="m453.8071 119.93438l0 277.5748" fill-rule="evenodd"/><path stroke="#e8eaed" stroke-width="8.0" stroke-linejoin="round" stroke-linecap="round" d="m453.8071 119.93438l0 277.5748" fill-rule="evenodd"/><path fill="#000000" fill-opacity="0.0" d="m233.0 310.0l220.78741 87.52756" fill-rule="evenodd"/><path stroke="#e8eaed" stroke-width="8.0" stroke-linejoin="round" stroke-linecap="round" d="m233.0 310.0l220.78741 87.52756" fill-rule="evenodd"/><path fill="#000000" fill-opacity="0.0" d="m235.3084 34.013123l0 276.97638" fill-rule="evenodd"/><path stroke="#e8eaed" stroke-width="8.0" stroke-linejoin="round" stroke-linecap="round" d="m235.3084 34.013123l0 276.97638" fill-rule="evenodd"/><path fill="#000000" fill-opacity="0.0" d="m158.22801 393.62704l-62.33071 -220.72441" fill-rule="evenodd"/><path stroke="#e8eaed" stroke-width="8.0" stroke-linejoin="round" stroke-linecap="round" d="m158.22801 393.62704l-62.33071 -220.72441" fill-rule="evenodd"/><path fill="#000000" fill-opacity="0.0" d="m184.82225 386.99353l-62.33071 -220.7244" fill-rule="evenodd"/><path stroke="#e8eaed" stroke-width="8.0" stroke-linejoin="round" stroke-linecap="round" d="m184.82225 386.99353l-62.33071 -220.7244" fill-rule="evenodd"/><path fill="#000000" fill-opacity="0.0" d="m95.45932 172.39355c0.81243134 -1.9207611 2.1414032 -9.160507 4.8745804 -11.524506c2.7331848 -2.3639984 8.126251 -3.1768188 11.524506 -2.6595001c3.3982468 0.5173187 7.387497 4.802841 8.864998 5.7634125" fill-rule="evenodd"/><path stroke="#e8eaed" stroke-width="8.0" stroke-linejoin="round" stroke-linecap="round" d="m95.45932 172.39355c0.81243134 -1.9207611 2.1414032 -9.160507 4.8745804 -11.524506c2.7331848 -2.3639984 8.126251 -3.1768188 11.524506 -2.6595001c3.3982468 0.5173187 7.387497 4.802841 8.864998 5.7634125" fill-rule="evenodd"/><path fill="#000000" fill-opacity="0.0" d="m95.9107 134.94252l16.440948 23.149612" fill-rule="evenodd"/><path stroke="#e8eaed" stroke-width="8.0" stroke-linejoin="round" stroke-linecap="round" d="m95.9107 134.94252l16.440948 23.149612" fill-rule="evenodd"/><path fill="#000000" fill-opacity="0.0" d="m96.345795 134.71916l0.37795258 29.70079" fill-rule="evenodd"/><path stroke="#e8eaed" stroke-width="8.0" stroke-linejoin="round" stroke-linecap="round" d="m96.345795 134.71916l0.37795258 29.70079" fill-rule="evenodd"/><path fill="#000000" fill-opacity="0.0" d="m158.22917 393.6259c0.8124237 -1.9207458 2.1414032 -9.160492 4.874588 -11.524506c2.7331848 -2.3639832 8.126251 -3.1768188 11.52449 -2.6594849c3.3982544 0.51730347 7.387512 4.802826 8.8650055 5.763397" fill-rule="evenodd"/><path stroke="#e8eaed" stroke-width="8.0" stroke-linejoin="round" stroke-linecap="round" d="m158.22917 393.6259c0.8124237 -1.9207458 2.1414032 -9.160492 4.874588 -11.524506c2.7331848 -2.3639832 8.126251 -3.1768188 11.52449 -2.6594849c3.3982544 0.51730347 7.387512 4.802826 8.8650055 5.763397" fill-rule="evenodd"/><path fill="#000000" fill-opacity="0.0" d="m184.54959 389.1406c-0.516922 1.4775085 -0.51615906 6.944275 -3.1015778 8.865021c-2.585434 1.9207458 -8.643188 3.0290527 -12.411011 2.6594849c-3.767807 -0.36956787 -8.496582 -4.064087 -10.195908 -4.8769226" fill-rule="evenodd"/><path stroke="#e8eaed" stroke-width="8.0" stroke-linejoin="round" stroke-linecap="round" d="m184.54959 389.1406c-0.516922 1.4775085 -0.51615906 6.944275 -3.1015778 8.865021c-2.585434 1.9207458 -8.643188 3.0290527 -12.411011 2.6594849c-3.767807 -0.36956787 -8.496582 -4.064087 -10.195908 -4.8769226" fill-rule="evenodd"/><path fill="#000000" fill-opacity="0.0" d="m194.07018 377.60413l-20.661423 -73.57483" fill-rule="evenodd"/><path stroke="#e8eaed" stroke-width="8.0" stroke-linejoin="round" stroke-linecap="round" d="m194.07018 377.60413l-20.661423 -73.57483" fill-rule="evenodd"/><path fill="#000000" fill-opacity="0.0" d="m185.1282 375.24472l3.5590668 -4.4094543" fill-rule="evenodd"/><path stroke="#e8eaed" stroke-width="8.0" stroke-linejoin="round" stroke-linecap="round" d="m185.1282 375.24472l3.5590668 -4.4094543" fill-rule="evenodd"/></g></svg>